# xmcd CD database file
#
# Track frame offsets:
#	150
#	18660
#	32785
#	53167
#
# Disc length: 875 seconds
#
# Revision: 2
# Processed by: cddbd v1.4b41PL1 Copyright (c) Steve Scherf et al.
# Submitted via: Feurio! 1.58ß - http://www.feurio.com
#
DISCID=23036904,2d036904
DTITLE=Maya Singh - Prinzessin
DYEAR=1900
DGENRE=
TTITLE0=Prinzessin
TTITLE1=Vielleicht auch nicht
TTITLE2=Kind des Universums
TTITLE3=Was du willst
EXTD=
EXTT0=
EXTT1=
EXTT2=
EXTT3=
PLAYORDER=
